<?xml version="1.0" encoding="UTF-8" standalone="no"?>
<!-- Created with Inkscape (http://www.inkscape.org/) -->

<svg
   xmlns:dc="http://purl.org/dc/elements/1.1/"
   xmlns:cc="http://creativecommons.org/ns#"
   xmlns:rdf="http://www.w3.org/1999/02/22-rdf-syntax-ns#"
   xmlns:svg="http://www.w3.org/2000/svg"
   xmlns="http://www.w3.org/2000/svg"
   xmlns:sodipodi="http://sodipodi.sourceforge.net/DTD/sodipodi-0.dtd"
   xmlns:inkscape="http://www.inkscape.org/namespaces/inkscape"
   width="766.0188mm"
   height="427.19748mm"
   viewBox="0 0 766.0188 427.19748"
   version="1.1"
   id="svg8959"
   inkscape:version="0.92.1 r15371"
   sodipodi:docname="category_CYS.svg">
  <defs
     id="defs8953" />
  <sodipodi:namedview
     id="base"
     pagecolor="#ffffff"
     bordercolor="#666666"
     borderopacity="1.0"
     inkscape:pageopacity="0.0"
     inkscape:pageshadow="2"
     inkscape:zoom="0.175"
     inkscape:cx="482.76764"
     inkscape:cy="1020.1523"
     inkscape:document-units="mm"
     inkscape:current-layer="layer1"
     showgrid="false"
     fit-margin-top="0"
     fit-margin-left="0"
     fit-margin-right="0"
     fit-margin-bottom="0"
     inkscape:window-width="1600"
     inkscape:window-height="877"
     inkscape:window-x="-8"
     inkscape:window-y="-8"
     inkscape:window-maximized="1" />
  <metadata
     id="metadata8956">
    <rdf:RDF>
      <cc:Work
         rdf:about="">
        <dc:format>image/svg+xml</dc:format>
        <dc:type
           rdf:resource="http://purl.org/dc/dcmitype/StillImage" />
        <dc:title></dc:title>
      </cc:Work>
    </rdf:RDF>
  </metadata>
  <g
     inkscape:label="Layer 1"
     inkscape:groupmode="layer"
     id="layer1"
     transform="translate(179.10956,244.14708)">
    <path
       style="fill:#784421;fill-opacity:1;stroke-width:0.12443138"
       d="m -100.0417,5.7218714 c -3.61522,-0.22996 -6.91992,-1.0126 -9.28306,-2.198496 -6.64908,-3.33667998 -12.07399,-12.636713 -13.5914,-23.3000254 -0.31825,-2.236488 -0.31667,-8.270896 0.002,-10.387984 0.12374,-0.82012 0.25077,-1.516928 0.2823,-1.548472 0.1346,-0.134592 1.67846,0.292624 2.532,0.700656 1.73891,0.831272 3.23891,2.716968 4.20306,5.283792 0.42183,1.123056 1.07295,3.572848 2.02844,7.631832 0.89753,3.812792 1.72921,5.842304 3.05064,7.444344 1.69847,2.0591204 4.62596,3.8296644 7.83424,4.7381364 4.162358,1.178624 9.828238,1.05612 14.018988,-0.303136 2.55758,-0.829536 4.38466,-2.000704 5.56552,-3.567536 1.3473,-1.7876884 2.09671,-3.7282564 3.44622,-8.9239044 1.02272,-3.937544 1.38409,-5.026288 2.2336,-6.72936 0.78312,-1.569944 1.63108,-2.69064 2.6277,-3.472864 1.01684,-0.79808 2.57442,-1.512056 3.78945,-1.737032 l 0.44918,-0.08319 0.0778,0.780064 c 0.42195,4.231896 0.40635,9.643728 -0.0374,12.9926 -1.16333,8.7785764 -4.45767,14.8242174 -10.1044,18.5431454 -3.78326,2.491656 -8.27908,3.793872 -14.30259,4.14276 -2.37414,0.13752 -2.58046,0.137296 -4.822948,-0.0056 z m 2.662758,-12.841169 c -0.97826,-0.554072 -1.54766,-2.03928 -1.32112,-3.4459364 0.36904,-2.291592 1.84371,-3.291112 3.57946,-2.42616 0.50533,0.251824 0.6472,0.391912 0.70881,0.699928 0.2163,1.081488 -0.062,2.196936 -1.01192,4.0556804 -0.67212,1.315176 -0.73785,1.399592 -1.08861,1.3978 -0.20532,-8e-4 -0.59529,-0.127632 -0.86662,-0.281312 z m -5.291158,-1.193008 c -0.54064,-0.56832 -0.81125,-1.386264 -0.80827,-2.4430724 0.006,-2.027944 1.20537,-2.969832 2.30728,-1.81148 0.72585,0.763016 0.93617,2.175544 0.5484,3.6829124 -0.22191,0.862616 -0.41993,1.052712 -1.09659,1.052712 -0.41069,0 -0.56976,-0.0805 -0.95082,-0.481072 z m 11.989258,0.125232 c -0.54898,-0.345152 -0.84849,-1.176368 -0.75394,-2.0924084 0.0955,-0.925544 0.71512,-2.177608 1.29738,-2.62172 0.60843,-0.464072 1.61182,-0.48312 2.31818,-0.044 l 0.48064,0.298784 -0.0574,1.132184 c -0.0803,1.5845764 -0.50525,2.6331524 -1.3127,3.2391284 -0.47047,0.35308 -1.47904,0.398112 -1.9722,0.08804 z m -16.614518,-0.950544 c -0.72096,-0.398448 -1.23334,-1.8431684 -0.98317,-2.7722164 0.27245,-1.011768 0.84726,-1.390464 1.74405,-1.148984 0.401,0.107976 0.53036,0.227928 0.76216,0.706776 0.37496,0.774568 0.39768,2.128336 0.0477,2.8409844 -0.21896,0.445808 -0.29636,0.500768 -0.74218,0.526992 -0.27374,0.01616 -0.64659,-0.05296 -0.82854,-0.153552 z m 13.816398,-9.7894404 c -0.49615,-0.406128 -0.63818,-2.015568 -0.28435,-3.222312 0.10899,-0.37172 0.42495,-1.1938 0.70214,-1.82684 0.40666,-0.92872 0.55461,-1.150904 0.76618,-1.150528 0.73353,0.0016 1.66453,1.082576 1.94741,2.261744 0.31797,1.325456 -0.18093,3.126672 -1.03434,3.734352 -0.47683,0.339528 -1.77678,0.465736 -2.09704,0.203584 z m -14.110068,-0.151976 c -0.49457,-0.215504 -1.11258,-0.931288 -1.31829,-1.526856 -0.21067,-0.609928 -0.21624,-2.187216 -0.0102,-2.874224 0.17998,-0.599992 0.76183,-1.32284 1.28082,-1.591224 0.4591,-0.237408 1.4097,-0.233704 1.64985,0.0064 0.49039,0.490392 0.65711,3.167128 0.27798,4.463136 -0.11749,0.40164 -0.35081,0.947584 -0.51849,1.213192 -0.33672,0.533408 -0.67268,0.609776 -1.36172,0.309544 z m 4.05067,-1.288664 c 0.007,-2.507224 0.42904,-4.05668 1.27381,-4.681488 0.32251,-0.238544 0.37871,-0.243304 0.86514,-0.07328 0.36109,0.12624 0.59769,0.315088 0.77349,0.617384 0.28829,0.495712 0.30959,1.100168 0.13707,3.88848 l -0.10587,1.710928 h -1.47399 -1.47398 z m 5.052788,0.497728 c -0.15287,-0.924832 -0.088,-3.503536 0.0993,-3.951968 0.3132,-0.749608 1.28116,-1.127536 2.09518,-0.818048 0.65883,0.250488 1.32927,2.33772 1.33234,4.147856 l 0.002,1.088776 h -1.72576 -1.72576 z m 10.38619,0.243576 c -0.45234,-0.845216 -0.67785,-3.597344 -0.37019,-4.517904 0.2372,-0.709696 0.69817,-1.107336 1.28372,-1.107336 0.75567,0 1.2975,0.352056 1.73855,1.129624 0.34895,0.615184 0.38267,0.773312 0.38267,1.794512 0,1.293752 -0.22276,1.865344 -0.95925,2.461432 -0.34205,0.276848 -0.61562,0.374928 -1.19145,0.427136 -0.66448,0.06024 -0.76261,0.03944 -0.88405,-0.187464 z m -16.065468,-6.25528 c -2.35595,-0.261112 -4.36007,-0.834144 -5.66325,-1.619272 -1.04313,-0.62844 -2.07244,-1.7998 -3.60226,-4.099336 -1.40728,-2.115337 -2.07448,-2.892225 -3.07184,-3.576825 -0.91472,-0.627864 -3.12501,-1.682928 -5.02083,-2.396656 -8.46538,-3.186984 -11.1602,-4.921088 -12.12237,-7.800728 -0.30896,-0.924624 -0.34108,-2.25844 -0.0727,-3.019056 0.42459,-1.203424 1.32543,-2.072256 3.48488,-3.361024 0.61594,-0.3676 1.29752,-0.801488 1.5146,-0.964192 l 0.39472,-0.295824 0.006,-3.771565 c 0.006,-3.8526 0.11654,-5.97843 0.46025,-8.84347 1.01078,-8.42545 3.10115,-15.7013 6.82506,-23.75559 0.2504,-0.54156 0.38252,-0.92875 0.29361,-0.86042 -2.19606,1.68777 -3.58278,3.10773 -4.75591,4.86991 -2.4272,3.64593 -3.71635,8.14977 -4.29857,15.01771 -0.12426,1.46564 -0.35832,8.70842 -0.4122,12.75422 -0.0259,1.94399 -0.0402,2.05312 -0.27022,2.05312 -0.14804,0 -0.52877,-0.34014 -0.97499,-0.87102 -2.13153,-2.53598 -3.44038,-5.35397 -4.19875,-9.04006 -0.69286,-3.36763 -0.95968,-7.03667 -0.74519,-10.2468 0.53655,-8.03007 3.27756,-15.04561 8.42329,-21.55918 1.1825,-1.49685 4.71362,-5.049118 6.13763,-6.174428 5.23234,-4.13472 11.23673,-6.66233 18.05853,-7.60194 3.75411,-0.51707 10.129438,-0.70438 12.860678,-0.37785 10.57799,1.26465 18.6475,4.67026 24.61586,10.38875 3.34511,3.205038 5.88968,7.049278 7.22485,10.915038 1.55848,4.51229 2.60869,11.89653 2.60684,18.32919 -0.002,6.61567 -1.62803,11.67803 -4.64996,14.47589 -0.92333,0.85485 -2.06361,1.54709 -2.24676,1.36395 -0.35336,-0.35334 -0.50692,-1.94826 -0.60864,-6.32084 -0.0573,-2.46374 -0.14345,-4.63351 -0.19144,-4.82171 -0.11316,-0.4439 -0.32072,-0.43187 -0.87003,0.0505 -0.54881,0.48186 -0.86617,1.08573 -1.14916,2.18667 -0.19268,0.74958 -0.21329,1.46614 -0.18678,6.49295 0.0258,4.872779 0.056,5.679379 0.22049,5.861099 0.37036,0.409232 1.44687,0.889384 3.47155,1.548368 2.22477,0.72412 2.96157,1.131536 3.57367,1.976088 0.45289,0.624856 0.43286,0.800544 -0.25964,2.278296 -1.77151,3.780312 -4.69568,6.417568 -10.95546,9.880536 -6.31183,3.491768 -8.06757,4.599201 -10.01672,6.318057 -1.10129,0.971176 -1.95735,1.929072 -2.88831,3.231888 l -0.47133,0.659624 -2.61307,0.0528 c -1.43718,0.02904 -4.43287,0.196872 -6.65708,0.373008 -4.40113,0.348528 -9.523948,0.485872 -11.198818,0.30024 z m 3.90678,-13.920385 c 1.229178,-0.520736 2.815548,-0.709024 4.305688,-0.51104 1.18182,0.157024 2.46892,0.533936 3.07967,0.901848 0.4861,0.292808 0.47625,0.40656 0.15311,-1.7676 -0.79896,-5.375728 -2.75848,-10.293784 -5.13931,-12.898776 l -0.62897,-0.688205 -0.42965,0.851893 c -1.339968,2.65684 -2.277908,5.770536 -2.617988,8.691064 -0.1992,1.710624 -0.30946,4.647432 -0.20952,5.580664 l 0.0895,0.835224 0.44349,-0.389392 c 0.24391,-0.214168 0.67323,-0.486728 0.95402,-0.60568 z m -11.82838,-9.785456 c 3.70587,-0.9538 7.09927,-4.3346 8.71966,-8.687317 0.65028,-1.74677 0.86987,-2.99444 0.86741,-4.92837 -0.002,-1.35711 -0.0557,-1.87023 -0.28082,-2.67091 -0.74112,-2.63572 -2.41084,-4.31134 -4.99316,-5.0108 -1.11697,-0.30256 -4.10705,-0.29615 -5.66163,0.0122 -2.92199,0.57945 -4.84777,1.91816 -6.03097,4.19244 -2.15968,4.15116 -2.6254,10.58504 -1.01933,14.081885 0.87369,1.902264 2.28192,2.875928 4.63529,3.20492 1.03917,0.145264 2.79754,0.05456 3.76355,-0.194008 z m 35.234288,-0.44876 c 1.60219,-0.336952 3.28933,-1.584352 4.09244,-3.025768 1.83384,-3.291399 1.65013,-8.392439 -0.4526,-12.567639 -1.21159,-2.40574 -3.65265,-4.58943 -5.75518,-5.14839 -2.31361,-0.61508 -5.45969,-0.29548 -7.69957,0.78219 -1.56464,0.75278 -2.89844,2.27561 -3.38834,3.86854 -0.50688,1.6481 -0.41585,4.33754 0.21011,6.20777 1.39228,4.15979 5.21366,8.556593 8.39816,9.662761 1.30205,0.45228 3.08596,0.537896 4.59498,0.220536 z"
       id="path4495"
       inkscape:connector-curvature="0" />
    <g
       style="fill:#784421;fill-opacity:1;stroke:none"
       transform="matrix(0.01014336,-0.00358931,-0.00358931,-0.01014336,158.10891,33.899632)"
       id="g8400">
      <path
         inkscape:connector-curvature="0"
         d="m 14065.586,15868.035 c -417,-38 -714,-111 -846,-208 -50,-37 -128,-141 -147,-196 -7,-18 -12,-50 -12,-71 v -39 h 180 c 205,0 237,-8 267,-62 16,-30 18,-78 24,-513 6,-448 6,-483 -11,-522 -31,-72 -38,-73 -378,-73 -277,0 -300,-1 -315,-18 -10,-10 -17,-33 -17,-50 0,-27 -4,-32 -25,-32 -25,0 -88,-49 -106,-83 -8,-13 -11,-248 -10,-747 l 2,-727 -26,4 c -48,10 -55,-8 -55,-138 0,-108 2,-119 21,-132 11,-8 29,-13 40,-10 18,5 19,-1 19,-138 0,-79 -3,-168 -7,-198 l -6,-53 -24,63 c -13,35 -37,84 -54,110 -29,46 -30,46 -97,52 -89,8 -102,-5 -95,-95 5,-61 4,-64 -31,-101 -35,-38 -36,-40 -36,-118 0,-78 1,-81 41,-134 l 41,-54 -6,-103 c -3,-57 -8,-130 -12,-163 -3,-34 -1,-82 5,-112 14,-59 67,-135 111,-158 19,-10 133,-26 325,-45 348,-35 365,-36 396,-11 13,10 67,82 119,160 l 94,141 h 218 218 v -44 c 0,-157 90,-396 204,-544 190,-247 460,-386 771,-399 151,-6 280,15 412,68 354,140 605,473 639,846 l 7,73 h 2712 2713 l 7,-67 c 26,-256 120,-458 294,-634 314,-316 797,-389 1194,-181 165,86 288,201 391,367 82,130 128,273 152,469 l 6,49 120,-7 c 67,-3 160,-6 208,-6 h 87 l 7,-40 c 4,-26 19,-54 39,-77 39,-42 22,-41 377,-23 406,20 555,31 608,46 54,15 126,70 137,104 4,12 17,20 37,22 22,2 32,9 34,23 6,43 6,824 0,834 -4,6 -25,11 -46,11 -37,0 -38,-2 -45,-39 l -7,-39 -87,41 -87,42 -7,230 c -11,369 -69,659 -188,940 -21,50 -75,189 -119,310 -130,350 -154,393 -271,482 -59,45 -158,192 -528,788 -134,215 -256,409 -272,433 l -29,42 h 70 c 39,0 70,4 70,9 0,23 -101,140 -157,182 -89,68 -315,153 -518,194 -180,37 -377,44 -1785,56 -1164,11 -6863,21 -6955,13 z m 2991,-107 c 65,-59 51,-161 -26,-199 -32,-17 -88,-18 -713,-18 -748,0 -717,-3 -757,63 -37,59 -17,141 42,173 18,11 172,13 721,14 h 697 z m 1844,18 c 59,-30 80,-127 39,-179 -46,-58 -18,-56 -756,-56 -761,0 -727,-3 -766,73 -26,50 -16,100 28,144 l 33,33 h 696 c 604,0 701,-2 726,-15 z m 1866,-19 c 30,-30 34,-40 34,-85 0,-44 -5,-56 -34,-89 l -34,-37 -679,-3 c -373,-2 -692,0 -709,3 -97,17 -130,154 -53,219 l 31,26 h 705 705 z m 1858,3 c 75,-59 72,-161 -7,-209 -31,-19 -55,-20 -718,-20 h -686 l -34,23 c -60,40 -77,114 -40,171 38,57 9,55 762,56 691,0 696,0 723,-21 z m -3768,-424 c 64,-26 64,-28 64,-560 0,-523 -1,-529 -59,-560 -27,-14 -106,-15 -716,-13 l -685,3 -27,28 -28,27 -3,497 c -2,369 1,505 9,526 7,16 26,38 43,48 30,18 63,19 699,19 564,0 673,-2 703,-15 z m 1874,0 c 61,-32 61,-25 58,-575 l -3,-500 -28,-27 -27,-28 -684,-3 c -436,-1 -693,1 -710,8 -14,5 -35,24 -46,42 -19,32 -20,51 -20,516 0,536 0,540 62,567 51,22 1356,22 1398,0 z m 2234,-557 c 156,-315 282,-574 281,-576 -2,-2 -471,0 -1044,4 l -1041,7 v 536 c 1,427 3,540 14,553 37,49 23,48 789,48 h 718 z m 249,561 c 69,-19 56,0 534,-749 185,-290 215,-343 211,-372 l -3,-23 h -289 -290 l -193,375 c -106,206 -241,466 -298,578 l -105,202 h 198 c 108,0 214,-5 235,-11 z m -7989,-13 c 69,-29 66,-6 66,-558 0,-364 -3,-504 -12,-523 -25,-56 -9,-55 -743,-55 -724,0 -718,0 -745,49 -6,13 -10,199 -10,528 v 509 l 28,26 c 15,14 34,28 42,31 8,3 313,6 678,6 545,1 669,-1 696,-13 z m 1770,-1 c 63,-30 61,-13 64,-540 2,-324 0,-492 -8,-517 -6,-20 -22,-46 -37,-57 -25,-21 -35,-21 -709,-21 -470,0 -690,3 -707,11 -57,26 -57,23 -57,561 0,374 3,499 13,518 7,14 28,33 47,42 32,17 87,18 698,18 570,0 668,-2 696,-15 z m 7841,-3295 c 43,-25 47,-30 30,-36 -101,-36 -117,-62 -146,-232 -11,-64 -25,-123 -30,-131 -8,-13 -9,-12 -5,4 10,35 44,278 52,358 7,89 7,89 99,37 z m -151,-464 c -3,-14 -10,-26 -15,-26 -5,0 -6,7 -4,15 3,8 7,22 10,31 9,27 17,9 9,-20 z"
         id="path8398"
         style="fill:#784421;fill-opacity:1" />
    </g>
    <g
       style="fill:#784421;fill-opacity:1;stroke:none"
       transform="matrix(0.01094078,0,0,-0.01094078,133.48008,181.17117)"
       id="g7845">
      <path
         inkscape:connector-curvature="0"
         d="m 8541,5694 c 118,-326 118,-327 100,-353 -27,-38 -983,-1386 -986,-1389 -2,-3 -108,-14 -730,-77 -247,-25 -535,-54 -640,-65 -374,-38 -1092,-111 -1190,-121 -178,-17 -640,-23 -811,-10 -186,14 -497,53 -610,76 -87,18 -210,63 -279,102 -25,13 -45,25 -45,26 0,1 13,71 28,155 l 29,152 h -134 -134 l -37,-60 c -20,-32 -40,-58 -44,-57 -13,4 -191,167 -441,406 -223,212 -565,557 -1036,1045 l -123,128 -214,-54 c -118,-29 -214,-57 -214,-62 0,-5 261,-522 579,-1150 319,-627 581,-1147 583,-1155 2,-10 -16,-18 -59,-28 l -61,-14 20,-72 c 11,-40 22,-79 25,-87 6,-21 -45,-38 -417,-140 C 832,2650 129,2445 66,2413 c -67,-33 -82,-82 -41,-131 39,-47 79,-59 250,-77 l 160,-16 190,51 c 105,28 305,82 445,120 140,38 399,107 575,155 176,47 413,111 527,141 l 208,56 137,-60 c 294,-130 755,-307 1088,-419 167,-56 207,-65 325,-78 74,-8 248,-29 385,-47 241,-32 262,-33 568,-32 175,1 317,0 315,-1 -2,-2 -97,-37 -213,-78 -115,-41 -349,-126 -520,-187 C 3877,1598 3654,1518 3465,1450 3157,1340 2530,1114 2325,1040 1797,849 1631,790 1625,790 c -3,0 -91,74 -196,165 -104,91 -195,165 -202,165 -46,1 -427,-36 -427,-41 0,-4 35,-38 77,-76 111,-99 357,-365 420,-455 68,-96 88,-113 177,-141 62,-19 93,-22 241,-22 l 170,1 130,42 c 72,24 252,83 400,132 2048,672 2192,719 3010,991 l 740,246 53,-49 c 30,-26 57,-48 60,-48 4,0 14,15 22,33 8,17 26,37 40,44 27,13 140,33 140,26 0,-3 -19,-26 -41,-51 -69,-77 -96,-155 -64,-182 14,-12 36,-10 91,6 18,5 25,-3 47,-48 40,-82 90,-134 161,-168 54,-25 84,-32 192,-41 76,-7 191,-8 279,-5 83,4 245,11 360,15 133,5 223,13 245,21 47,18 213,134 243,170 46,54 117,252 117,325 0,52 -56,251 -84,299 -29,50 -61,76 -138,111 -29,13 -46,24 -38,24 8,1 89,10 180,21 550,66 820,93 1240,125 984,76 2304,219 2566,280 272,63 603,246 836,464 84,79 118,138 125,219 4,51 1,62 -25,104 -46,70 -173,165 -387,288 -60,35 -130,81 -155,103 -67,59 -244,140 -405,186 -342,98 -468,126 -662,151 -178,22 -995,-27 -2011,-121 -183,-17 -335,-29 -338,-26 -3,3 88,292 202,643 113,352 207,642 208,645 0,4 -98,153 -219,332 l -220,326 -181,1 h -181 z"
         id="path7843"
         style="fill:#784421;fill-opacity:1" />
    </g>
    <g
       style="fill:#784421;fill-opacity:1;stroke:none"
       transform="matrix(0.01084011,0,0,-0.01084011,500.39737,166.23522)"
       id="g7290">
      <path
         inkscape:connector-curvature="0"
         d="m 2220,12663 c -37,-84 -87,-226 -106,-300 l -18,-73 h -119 c -117,0 -301,-16 -324,-29 -15,-8 41,-144 120,-295 l 58,-109 -79,-81 c -44,-45 -112,-121 -152,-171 l -71,-90 53,-24 c 76,-34 254,-96 316,-111 l 52,-12 v -106 c 0,-97 11,-237 25,-319 l 6,-32 52,20 c 277,108 492,258 549,384 32,70 32,224 0,305 -12,30 -22,56 -22,58 0,7 108,-54 186,-107 92,-61 204,-167 250,-234 105,-155 116,-308 38,-511 -90,-233 -230,-378 -382,-393 -26,-3 -52,-11 -58,-19 -9,-11 -26,-11 -105,2 -151,25 -487,29 -659,10 -179,-21 -391,-63 -575,-114 -77,-21 -141,-38 -143,-37 -1,1 6,22 17,46 52,118 52,262 1,366 -60,122 -241,254 -518,379 -89,40 -97,42 -104,25 -13,-36 -38,-277 -38,-368 v -91 l -53,-12 c -135,-31 -407,-124 -407,-140 0,-14 150,-204 226,-287 l 75,-83 -52,-86 C 185,9901 88,9687 103,9679 c 20,-11 227,-38 349,-45 l 116,-7 16,-66 c 22,-87 83,-273 112,-339 16,-37 27,-51 36,-46 40,24 186,140 265,211 l 92,83 53,-33 c 123,-78 363,-195 375,-183 11,11 34,202 40,331 7,155 -6,275 -38,361 -36,97 -134,183 -256,225 -32,12 -59,22 -61,24 -5,5 101,34 238,66 244,56 499,89 686,89 314,0 799,-102 1118,-236 l 86,-36 -44,-56 c -70,-92 -150,-220 -204,-327 l -50,-101 -87,-53 c -104,-63 -205,-160 -264,-253 l -43,-67 -33,13 c -132,56 -382,61 -528,12 -145,-49 -243,-112 -347,-223 -144,-154 -214,-332 -213,-543 0,-146 16,-214 89,-385 3,-6 -34,-11 -98,-12 -264,-4 -506,-135 -657,-356 -155,-228 -178,-539 -56,-794 46,-99 87,-156 168,-236 l 69,-68 -31,-34 c -291,-332 -270,-828 48,-1127 38,-36 93,-80 123,-98 l 54,-32 v -147 c -1,-122 3,-159 22,-224 21,-73 83,-209 115,-251 13,-18 12,-25 -4,-63 -40,-94 -53,-165 -53,-298 -1,-140 9,-195 55,-308 61,-150 165,-279 297,-368 l 76,-51 -3,-127 c -3,-142 16,-247 64,-354 77,-174 222,-324 390,-403 33,-16 61,-29 63,-30 2,-1 -2,-46 -7,-99 -28,-251 52,-478 234,-660 120,-120 229,-182 387,-221 l 63,-16 16,-81 c 33,-168 96,-284 224,-412 91,-91 179,-151 268,-183 44,-15 48,-19 42,-42 -4,-14 -9,-83 -12,-155 -6,-144 12,-248 60,-357 99,-223 304,-398 547,-464 90,-25 301,-25 389,-1 162,44 264,101 376,212 198,195 281,463 226,730 -23,112 -56,193 -115,284 -25,40 -46,75 -46,79 0,5 16,24 36,43 51,48 126,165 163,252 28,69 61,215 61,276 0,23 11,31 98,73 165,79 293,203 371,361 61,124 83,219 84,362 0,130 -20,228 -68,333 -14,30 -25,58 -25,62 0,4 19,20 42,35 109,72 212,196 272,327 47,101 66,176 72,293 13,229 -69,446 -232,612 l -62,63 44,19 c 108,48 237,155 308,255 101,142 146,269 153,437 10,221 -57,420 -193,572 -19,20 -34,40 -34,45 0,4 28,23 62,42 69,39 189,151 236,221 311,459 102,1071 -424,1239 l -70,23 -1,126 c 0,96 -6,145 -22,206 -62,233 -213,420 -422,526 -123,62 -213,83 -356,83 l -122,1 -6,55 c -18,181 -83,351 -179,472 -103,129 -295,248 -458,283 l -77,17 -17,51 c -87,265 -303,469 -570,537 -94,24 -214,33 -291,22 -35,-5 -63,-5 -63,0 0,4 25,50 56,101 171,287 395,497 681,640 155,78 543,224 713,270 200,53 257,62 425,61 145,0 169,-3 250,-28 192,-58 342,-147 686,-407 294,-223 447,-312 647,-379 138,-46 231,-61 372,-61 131,0 240,20 314,58 l 36,18 -35,57 -35,56 -67,-26 c -62,-24 -81,-26 -218,-26 -132,0 -162,3 -246,26 -216,60 -376,148 -673,373 -392,296 -550,387 -771,448 -69,18 -106,21 -265,22 -155,0 -202,-4 -291,-23 -209,-45 -470,-133 -780,-264 -207,-87 -377,-195 -529,-337 l -84,-77 -76,32 c -123,51 -325,119 -464,155 l -129,33 39,17 c 57,24 141,90 191,151 56,67 146,249 174,353 63,226 -1,427 -192,611 -73,70 -224,177 -287,203 -45,19 -40,28 17,33 103,10 248,104 292,190 40,78 53,164 53,343 -1,145 -15,319 -28,333 -8,7 -203,-79 -300,-134 l -99,-55 -76,74 c -81,80 -247,217 -261,217 -5,0 -18,-21 -30,-47 z"
         id="path7288"
         style="fill:#784421;fill-opacity:1" />
    </g>
    <g
       style="fill:#784421;fill-opacity:1;stroke:none"
       transform="matrix(0.01140555,0,0,-0.01140555,486.89217,-97.312942)"
       id="g6735">
      <path
         inkscape:connector-curvature="0"
         d="m 4220,12790 c -575,-48 -1110,-361 -1431,-839 -205,-304 -319,-670 -319,-1023 v -125 l -127,-17 c -346,-47 -803,-133 -820,-153 -6,-8 -24,-80 -39,-161 l -28,-147 -52,-55 C 1201,10055 944,9727 755,9440 275,8714 25,8009 3,7320 -21,6593 243,5904 773,5306 c 43,-48 75,-91 70,-95 -4,-4 -43,-36 -85,-70 -43,-34 -82,-71 -88,-81 -20,-36 -12,-95 19,-136 l 28,-40 -107,-116 C 490,4640 475,4609 483,4519 c 13,-146 249,-449 461,-590 120,-81 181,-111 322,-158 146,-48 270,-70 433,-78 113,-6 125,-4 138,12 24,34 16,74 -18,93 -126,69 -223,139 -315,226 -58,54 -103,100 -101,102 2,3 31,-9 63,-25 108,-53 181,-72 301,-78 134,-7 219,10 332,66 83,41 131,88 131,129 0,42 -17,52 -87,52 -118,0 -235,63 -378,205 -120,119 -140,153 -139,234 0,53 7,80 33,138 19,40 42,80 52,89 23,21 69,15 147,-21 141,-64 244,-228 286,-457 13,-67 21,-87 43,-105 61,-49 142,-46 188,9 l 28,33 -6,320 c -10,623 -66,842 -228,894 -123,39 -381,-9 -584,-110 l -64,-33 -43,49 c -43,49 -89,75 -131,75 -14,0 -51,-20 -83,-45 -44,-35 -60,-42 -66,-32 -13,25 -105,338 -131,452 -233,988 -131,1793 290,2315 59,73 201,217 206,209 2,-2 13,-38 26,-79 239,-775 742,-1448 1433,-1917 l 107,-73 h 190 191 v -390 -390 h -196 -197 l 7,-40 c 11,-73 67,-233 114,-328 l 46,-92 -26,-28 c -117,-124 -298,-511 -392,-839 -108,-377 -157,-719 -157,-1108 0,-435 63,-778 202,-1098 57,-132 50,-187 -30,-260 -70,-63 -140,-103 -531,-302 -408,-208 -554,-291 -700,-396 -163,-117 -164,-119 -214,-254 -24,-66 -79,-201 -121,-300 -107,-250 -125,-299 -125,-349 0,-66 23,-81 119,-79 143,3 287,45 568,164 191,82 216,88 243,64 26,-24 37,-67 49,-206 11,-133 22,-163 63,-180 38,-16 72,-5 218,66 128,63 197,102 391,222 l 136,83 22,60 c 59,161 265,393 561,630 197,158 270,229 270,261 0,18 -15,36 -62,69 -138,101 -275,300 -364,530 l -36,95 6,160 c 36,846 311,1693 763,2338 l 51,74 198,-1 199,-1 87,-130 c 427,-635 683,-1442 724,-2281 8,-164 -1,-201 -86,-379 -85,-177 -197,-324 -309,-405 -46,-33 -61,-51 -61,-69 0,-32 73,-103 270,-261 296,-237 502,-469 561,-630 l 22,-60 136,-83 C 6123,177 6192,138 6320,75 6466,4 6500,-7 6538,9 c 41,17 52,47 63,180 12,139 23,182 49,206 27,24 52,18 243,-64 281,-119 425,-161 568,-164 95,-2 119,13 119,78 0,53 -7,72 -123,347 -52,122 -111,269 -132,325 l -37,102 -76,61 c -174,138 -356,245 -807,472 -348,175 -470,246 -527,305 -70,73 -74,125 -19,251 89,202 156,462 186,722 30,266 17,687 -30,980 -86,530 -281,1060 -484,1318 l -41,52 40,80 c 63,126 120,298 120,364 0,14 -28,16 -225,16 h -225 v 390 390 h 221 220 l 107,73 c 691,469 1194,1142 1433,1917 13,41 24,77 26,79 5,8 147,-136 206,-209 421,-522 523,-1327 290,-2315 -26,-114 -118,-427 -131,-452 -6,-10 -22,-3 -66,32 -32,25 -69,45 -83,45 -42,0 -88,-26 -131,-75 l -43,-49 -64,33 c -203,101 -461,149 -584,110 -162,-52 -218,-271 -228,-894 l -6,-320 28,-33 c 46,-55 127,-58 188,-9 22,18 30,38 43,105 31,168 92,297 181,384 58,57 151,102 213,102 l 45,1 38,-75 c 51,-100 60,-178 27,-245 -27,-56 -183,-215 -263,-268 -89,-59 -144,-80 -227,-85 -41,-2 -81,-9 -87,-14 -20,-16 -15,-50 11,-88 31,-46 162,-112 270,-135 151,-33 343,-4 484,74 28,16 52,26 52,21 0,-4 -47,-52 -104,-107 -92,-86 -189,-156 -315,-225 -34,-19 -42,-59 -18,-93 13,-16 25,-18 138,-12 163,8 287,30 433,78 141,47 202,77 322,158 212,141 448,444 461,590 8,90 -7,121 -127,249 l -107,116 28,40 c 31,41 39,100 19,136 -6,10 -45,47 -88,81 -42,34 -81,66 -85,70 -5,4 27,47 70,95 347,391 582,825 692,1276 113,464 107,922 -21,1433 -115,462 -336,946 -653,1425 -189,287 -446,615 -649,830 l -52,55 -28,147 c -15,81 -33,153 -39,161 -17,21 -431,94 -814,143 l -133,18 v 103 c 0,483 -187,948 -525,1302 -353,370 -813,575 -1335,595 -69,2 -168,1 -220,-4 z"
         id="path6733"
         style="fill:#784421;fill-opacity:1" />
    </g>
    <g
       style="fill:#784421;fill-opacity:1;stroke:none"
       transform="matrix(0.01798506,0,0,-0.01798506,-241.58357,187.23226)"
       id="g6180">
      <path
         inkscape:connector-curvature="0"
         d="m 3787,8347 c -10,-27 45,-119 93,-155 40,-31 48,-33 94,-28 225,24 289,20 310,-22 7,-15 16,-67 20,-117 7,-108 44,-277 82,-371 14,-38 51,-112 81,-166 30,-53 54,-105 54,-115 0,-10 -3,-77 -7,-150 -10,-198 13,-311 102,-496 29,-61 34,-82 34,-143 0,-177 77,-347 230,-510 58,-61 72,-84 105,-170 126,-329 272,-488 458,-502 l 68,-5 -48,-33 c -108,-76 -159,-124 -280,-261 -139,-157 -406,-407 -458,-429 -82,-34 -217,-67 -300,-73 -73,-5 -90,-9 -93,-23 -2,-10 6,-19 19,-23 13,-4 29,-14 37,-21 8,-9 36,-14 73,-14 32,0 59,-2 59,-5 0,-20 -38,-55 -80,-75 -64,-30 -64,-54 -2,-58 28,-2 56,3 80,16 20,10 55,25 76,32 22,7 73,28 114,47 41,18 76,32 78,30 3,-2 -26,-55 -62,-118 -138,-235 -314,-630 -350,-786 -9,-37 -14,-87 -11,-110 5,-50 31,-95 51,-87 32,12 83,139 126,314 61,246 120,383 207,486 52,62 84,72 139,44 50,-26 73,-25 174,5 115,34 126,33 176,-19 93,-97 178,-109 282,-40 31,20 71,38 91,40 20,2 62,5 93,8 l 57,4 -18,-42 c -26,-60 -49,-166 -61,-286 -18,-178 -23,-570 -10,-770 22,-335 23,-497 6,-580 -18,-87 -94,-247 -145,-303 -54,-60 -84,-72 -146,-57 -64,15 -99,2 -129,-49 -18,-31 -19,-40 -8,-103 22,-127 17,-173 -29,-266 -32,-62 -44,-101 -51,-160 -13,-103 -12,-120 2,-137 19,-23 37,-18 77,18 86,77 123,122 153,185 78,162 90,179 90,125 0,-16 4,-86 10,-158 28,-380 30,-437 20,-517 -5,-45 -16,-88 -24,-97 -35,-39 -56,-106 -56,-181 0,-42 -7,-129 -15,-194 -11,-91 -12,-136 -4,-199 16,-127 17,-130 39,-124 15,4 20,0 20,-14 0,-18 10,-23 37,-20 6,1 13,-9 15,-21 2,-16 11,-24 28,-26 14,-2 29,-10 33,-18 11,-19 36,-18 44,2 5,13 8,12 25,-6 25,-27 59,-22 76,10 10,19 11,61 6,180 -6,142 -8,388 -5,645 2,182 46,437 121,700 22,77 47,187 55,245 24,168 19,157 88,192 79,39 142,81 192,128 22,21 75,55 118,76 102,50 142,90 184,183 19,41 64,122 101,180 82,132 259,481 312,619 67,173 81,238 110,522 6,58 22,155 36,215 15,61 29,126 31,146 4,32 8,35 29,31 23,-4 24,-2 22,39 -1,24 4,75 11,112 11,66 9,110 -10,172 -7,26 -1,45 45,136 29,59 61,136 71,173 13,46 23,66 34,66 35,0 119,50 154,90 86,101 88,195 5,382 -71,158 -84,223 -63,304 9,34 15,91 14,134 -2,72 -1,79 50,179 29,57 74,138 101,181 59,94 135,245 188,371 22,52 72,144 111,204 40,61 111,188 159,283 48,94 92,172 98,172 13,0 24,-23 24,-51 0,-41 62,-3 94,59 14,28 14,32 -5,56 -47,60 -115,72 -213,37 -115,-40 -213,-131 -421,-390 -75,-94 -140,-173 -144,-175 -5,-3 -6,5 -4,18 3,14 0,32 -6,43 -8,14 -11,14 -11,3 0,-13 -2,-13 -11,0 -9,12 -10,11 -4,-5 4,-11 9,-37 12,-57 5,-32 1,-43 -26,-73 -17,-20 -31,-31 -31,-26 0,5 5,13 10,16 17,10 11,96 -11,175 -12,41 -21,83 -21,93 0,9 -4,15 -9,11 -5,-3 -8,-1 -7,4 2,6 -14,33 -34,60 -27,37 -32,49 -20,47 9,-1 16,-8 14,-15 -1,-6 2,-8 9,-4 7,4 9,3 6,-3 -4,-6 0,-19 8,-29 9,-12 14,-14 15,-6 0,15 20,6 20,-9 0,-6 -5,-7 -12,-3 -7,4 -8,3 -4,-5 4,-6 12,-8 18,-5 7,4 8,2 4,-4 -4,-7 -4,-17 0,-23 5,-8 9,-8 14,1 5,8 9,7 13,-5 4,-9 3,-14 -2,-11 -21,13 -18,-27 4,-66 14,-24 25,-36 25,-28 0,13 1,13 10,0 9,-13 10,-13 10,0 1,9 6,5 15,-10 8,-14 14,-21 15,-17 0,13 -51,110 -81,152 -30,42 -132,155 -108,120 7,-11 0,-7 -19,9 -18,17 -32,32 -32,34 0,3 9,-3 20,-13 37,-34 20,1 -23,46 -39,41 -127,107 -184,137 -43,24 -172,22 -280,-4 -54,-12 -116,-26 -138,-30 -33,-6 -36,-8 -17,-13 22,-6 22,-7 -10,-22 -66,-33 -102,-42 -157,-41 -31,1 -62,-2 -69,-7 -8,-4 23,-6 69,-4 45,2 88,8 96,15 7,6 16,8 20,5 14,-15 -69,-35 -167,-41 -58,-4 -123,-11 -145,-16 -22,-5 -73,-14 -112,-20 -40,-7 -75,-16 -78,-20 -5,-8 9,-7 76,5 21,4 45,3 57,-4 15,-8 30,-7 59,4 l 38,15 -45,-5 c -52,-5 -44,0 17,14 25,5 41,5 37,0 -3,-5 5,-9 18,-10 24,-1 -79,-37 -122,-43 -54,-7 -108,-27 -114,-42 -4,-10 -2,-14 6,-10 16,6 81,25 133,37 22,6 55,15 73,21 52,16 48,3 -10,-30 -29,-16 -75,-50 -101,-75 -42,-39 -47,-48 -38,-65 7,-14 8,-23 1,-27 -15,-9 -12,-27 3,-19 10,6 10,4 0,-7 -20,-21 -15,-32 12,-27 29,6 30,1 10,-26 -13,-17 -13,-22 2,-38 27,-30 53,-21 155,50 18,13 4,-4 -31,-37 -35,-34 -61,-61 -57,-61 21,0 69,35 109,80 26,28 51,49 57,45 15,-9 13,-125 -2,-129 -7,-2 -35,-11 -63,-20 -27,-9 -89,-19 -138,-21 -48,-3 -91,-6 -95,-6 -4,-1 -22,-1 -39,0 -36,1 -28,-8 -139,171 -170,276 -492,690 -667,858 -212,202 -476,351 -823,462 -120,38 -356,79 -505,87 -101,5 -117,4 -122,-10 z M 6405,7239 c -7,-11 -65,-12 -65,-1 0,4 16,8 35,9 20,1 33,-3 30,-8 z m 981,-228 c 1,-9 4,-25 9,-36 4,-11 -2,-5 -14,13 -25,38 -25,39 -8,39 7,0 13,-7 13,-16 z m -116,-238 -1,-38 -15,28 c -15,27 -12,47 7,47 5,0 9,-17 9,-37 z m 17,-113 c 9,0 -1,-21 -28,-57 -23,-32 -80,-116 -128,-188 -85,-129 -86,-130 -89,-93 -2,20 2,61 8,90 6,29 14,68 17,86 4,26 9,32 22,26 41,-17 52,-15 79,11 l 27,27 -28,22 c -15,12 -27,27 -27,34 0,19 18,14 25,-7 10,-34 31,-31 44,5 7,19 17,34 23,34 5,0 7,8 4,17 -10,25 17,37 28,13 5,-11 15,-20 23,-20 z m -707,-80 c 0,-5 7,-7 15,-4 16,7 31,-36 21,-61 -3,-9 -2,-13 4,-10 14,9 12,-19 -2,-33 -9,-9 -9,-12 0,-12 6,0 16,8 21,18 9,15 10,15 11,1 1,-69 -93,-187 -170,-214 -58,-21 -228,-21 -236,0 -8,21 52,89 114,127 101,63 137,94 172,146 32,49 50,64 50,42 z M 6275,5055 c 0,-122 -2,-133 -28,-187 -26,-52 -116,-173 -123,-165 -2,2 5,25 15,53 10,27 40,143 66,257 56,243 69,250 70,42 z M 5657,358 c -3,-8 -6,-5 -6,6 -1,11 2,17 5,13 3,-3 4,-12 1,-19 z"
         id="path6164"
         style="fill:#784421;fill-opacity:1" />
      <path
         inkscape:connector-curvature="0"
         d="m 6318,7331 c -37,-10 -71,-21 -75,-25 -5,-5 1,-6 12,-3 11,3 49,13 85,22 64,16 87,26 59,24 -8,0 -44,-9 -81,-18 z"
         id="path6166"
         style="fill:#784421;fill-opacity:1" />
      <path
         inkscape:connector-curvature="0"
         d="m 6268,7283 c 12,-2 30,-2 40,0 9,3 -1,5 -23,4 -22,0 -30,-2 -17,-4 z"
         id="path6168"
         style="fill:#784421;fill-opacity:1" />
      <path
         inkscape:connector-curvature="0"
         d="m 6068,7257 c -27,-11 -47,-21 -44,-25 3,-3 16,0 29,6 12,6 60,18 107,26 l 85,15 -63,-2 c -35,-1 -86,-10 -114,-20 z"
         id="path6170"
         style="fill:#784421;fill-opacity:1" />
      <path
         inkscape:connector-curvature="0"
         d="m 6090,7194 c -21,-8 -27,-13 -15,-13 11,0 36,7 55,14 21,8 27,13 15,13 -11,0 -36,-6 -55,-14 z"
         id="path6172"
         style="fill:#784421;fill-opacity:1" />
      <path
         inkscape:connector-curvature="0"
         d="m 6109,7083 c -13,-16 -12,-17 4,-4 9,7 17,15 17,17 0,8 -8,3 -21,-13 z"
         id="path6174"
         style="fill:#784421;fill-opacity:1" />
      <path
         inkscape:connector-curvature="0"
         d="m 6178,6803 c 7,-3 16,-2 19,1 4,3 -2,6 -13,5 -11,0 -14,-3 -6,-6 z"
         id="path6176"
         style="fill:#784421;fill-opacity:1" />
      <path
         inkscape:connector-curvature="0"
         d="m 6238,6803 c 7,-3 16,-2 19,1 4,3 -2,6 -13,5 -11,0 -14,-3 -6,-6 z"
         id="path6178"
         style="fill:#784421;fill-opacity:1" />
    </g>
    <path
       style="fill:#784421;fill-opacity:1;stroke:none;stroke-width:0.01087428"
       id="path5607"
       d="m 415.12631,-73.323625 c -0.65244,0.17399 -1.33751,0.3371 -1.52233,0.3806 -0.50026,0.10874 -1.56596,1.27229 -2.29449,2.50108 -1.65288,2.81644 -2.2075,4.89343 -1.60942,6.04611 0.20663,0.40234 1.01134,1.07655 1.37015,1.15266 0.2719,0.0544 0.31536,0.14137 0.57635,1.2288 0.15227,0.64158 0.32626,1.67464 0.38063,2.29447 0.0653,0.61983 0.18481,1.39191 0.27181,1.71814 0.19572,0.75033 0.95698,2.06612 1.96823,3.41452 0.4459,0.58722 0.83735,1.185304 0.86998,1.337537 0.10873,0.4241 -0.72853,1.207046 -3.6211,3.381908 -2.53376,1.892123 -3.15357,2.468456 -4.46936,4.197472 -0.40235,0.521962 -0.43499,0.641578 -0.51108,1.468023 -0.0435,0.500217 -0.10873,1.03306 -0.15227,1.185302 -0.0653,0.260976 -0.087,0.250104 -0.53281,-0.271858 -0.25008,-0.304484 -1.22879,-1.359289 -2.18577,-2.348849 -3.63201,-3.773373 -4.56717,-5.328393 -3.94736,-6.557194 0.11963,-0.239231 0.66334,-0.826445 1.19615,-1.31578 0.80471,-0.739461 1.03307,-1.022191 1.37024,-1.718141 0.84817,-1.76163 1.4897,-4.05611 1.8486,-6.62243 0.39145,-2.76207 0.51108,-6.40495 0.23927,-7.42714 -0.66335,-2.47934 -3.2623,-3.70813 -7.84038,-3.70813 -2.40322,0 -3.93655,0.36973 -4.84998,1.17442 -0.46754,0.40236 -0.50017,0.41323 -1.46797,0.4676 -1.17443,0.0544 -1.96823,0.3806 -2.59895,1.08742 -0.76125,0.82645 -1.2397,2.32711 -1.2506,3.806 0,0.67421 -0.0435,0.82645 -0.56545,1.79426 -1.1527,2.19661 -1.30488,2.54458 -1.45715,3.43627 -0.18481,1.01131 -0.15226,1.43541 0.25009,2.90344 0.3589,1.32666 0.30454,1.97911 -0.28272,3.91473 -0.57635,1.848634 -0.64154,2.555464 -0.39145,4.110485 0.16309,1.03306 0.174,1.326662 0.0653,2.000866 -0.14136,0.89169 -0.57635,1.892123 -1.07661,2.511963 -0.23918,0.304476 -0.32618,0.500217 -0.29354,0.706822 0.0326,0.163114 0.10872,1.250545 0.17391,2.414093 0.0653,1.163547 0.14145,2.142235 0.15227,2.16398 0.0217,0.01087 0.20663,-0.304475 0.41326,-0.70683 l 0.38054,-0.75032 0.0762,0.652458 c 0.32618,2.979554 0.92425,6.230965 1.21788,6.67681 0.174,0.260976 0.20663,0.141361 0.91344,-3.142669 0.41326,-1.88125 0.80471,-3.729882 0.86998,-4.110483 0.0761,-0.369719 0.17399,-0.674203 0.22836,-0.674203 0.14136,0 0.50017,0.793819 0.57635,1.304917 0.0761,0.521961 -0.0762,3.958233 -0.33717,7.611998 -0.087,1.228792 -0.18482,3.153541 -0.21746,4.295335 -0.0544,1.402787 -0.11963,2.16398 -0.21745,2.359721 -0.44589,0.869945 0.0761,2.533708 2.16396,6.861669 l 0.77207,1.609392 -0.25009,1.109176 c -0.14136,0.608959 -0.53289,1.989993 -0.88088,3.066551 -1.25052,3.849498 -1.51152,5.0347915 -1.59851,7.0791565 -0.10873,2.490209 0.43499,4.056111 2.24013,6.39407903 1.07652,1.391906 1.68551,2.51195497 1.8595,3.38189897 0.174,0.89169 0.27182,9.9499655 0.11964,11.0373965 -0.21754,1.489776 -0.82644,4.230099 -1.53333,6.81817 l -0.65244,2.414093 v 6.230964 c 0,3.816872 0.0435,6.404952 0.11963,6.665937 0.0544,0.239232 0.14136,1.750753 0.19572,3.371027 0.0762,2.435838 0.14136,3.186158 0.36972,4.404077 0.54372,2.816439 0.56553,3.729883 0.19573,7.66637 -0.0652,0.598087 -0.14136,1.555021 -0.18482,2.131363 l -0.0653,1.043932 0.81562,0.06524 c 1.34842,0.09787 2.17486,0.598087 2.94693,1.761634 0.36972,0.543716 0.43491,0.587206 1.01126,0.70683 0.40235,0.08699 1.21797,0.119616 2.26186,0.08699 1.70723,-0.06524 2.62067,-0.250103 3.28402,-0.70683 0.2719,-0.184859 0.41326,-0.195732 1.39196,-0.130488 3.70811,0.260985 6.30705,-0.0435 7.15521,-0.848191 0.45672,-0.434972 0.54372,-0.739456 0.39154,-1.391914 -0.15227,-0.663332 -0.261,-0.815565 -0.60899,-0.815565 -0.63071,0 -1.01134,-0.402355 -1.00043,-1.087431 0.0109,-0.619832 0.0761,-0.793819 0.44581,-1.076558 0.2719,-0.217477 0.3589,-0.228359 1.52242,-0.141361 1.59851,0.130489 3.33838,0 6.76385,-0.478471 l 0.53281,-0.07612 -0.26099,0.478472 c -0.14137,0.260976 -0.57635,0.804691 -0.9678,1.196165 -0.60899,0.619832 -0.94607,0.837318 -2.46849,1.59852 -2.01169,1.022186 -2.0335,1.043931 -2.04432,2.490209 0,0.880817 -0.0544,0.815573 1.13088,1.533276 1.53333,0.935189 2.40322,1.033059 3.98001,0.4241 0.54371,-0.217481 1.29405,-0.434967 1.6855,-0.511092 1.04398,-0.173987 3.01221,-0.848191 3.3602,-1.152666 0.30445,-0.260985 1.08734,-0.587215 1.38097,-0.587215 0.11964,0 0.15227,0.228359 0.15227,1.043932 0,1.250537 0.31536,2.544581 0.63071,2.544581 0.0978,0 1.01126,0.05437 2.0226,0.108743 2.1205,0.119616 2.49022,0.06524 4.31709,-0.652458 1.25051,-0.489344 1.72905,-0.880817 1.95741,-1.59852 0.0761,-0.228359 0.16308,-1.250545 0.19572,-2.283596 l 0.0653,-1.859505 0.67417,-0.456717 c 0.38063,-0.250113 0.71771,-0.500217 0.75034,-0.565461 0.0326,-0.05437 0.0652,-1.098303 0.0544,-2.30535 -0.0109,-1.207046 0.0217,-2.316222 0.087,-2.468464 0.0544,-0.152242 0.44581,-1.772507 0.8699,-3.588513 0.82643,-3.566759 0.86998,-3.849498 1.31579,-9.721607 0.63071,-8.23183 0.88088,-18.48628 0.67425,-27.4575578 -0.11963,-5.45889067 -0.22836,-7.25314267 -0.67425,-11.2331287 -0.11964,-1.054804 -0.21745,-1.968248 -0.21745,-2.02262 0,-0.05437 0.48935,-0.761201 1.07652,-1.565893 0.59808,-0.815573 1.16361,-1.6202745 1.2506,-1.8051335 0.27182,-0.511089 0.21746,-0.913444 -0.20663,-1.533276 -0.20663,-0.315348 -0.38062,-0.587206 -0.38062,-0.608959 0,-0.02175 0.33708,-0.413219 0.76116,-0.859064 0.96789,-1.054804 1.25061,-1.468031 2.01178,-2.990426 1.28315,-2.566334 1.37015,-2.827319 1.42451,-4.338841 0.0326,-1.283163 0.0653,-1.402779 0.46763,-2.337968 0.66335,-1.555029 0.90252,-2.424965 0.90252,-3.218793 -0.0108,-0.391474 -0.13045,-2.174853 -0.28272,-3.969114 -0.25008,-2.990426 -0.32617,-3.468889 -0.82643,-5.708994 -0.77208,-3.447144 -2.00087,-8.199205 -2.50104,-9.688981 -0.75035,-2.261851 -1.75078,-4.00174 -3.14266,-5.458891 -1.18534,-1.239673 -1.63115,-1.522403 -3.83865,-2.40322 -3.45801,-1.381034 -4.48026,-1.707264 -5.54587,-1.772504 -0.82644,-0.0544 -1.92478,0.0652 -2.41413,0.25011 -0.0978,0.0326 -0.34799,-0.53284 -0.77208,-1.75076 -0.73944,-2.14224 -0.75034,-2.53371 -0.16308,-3.86037 0.34799,-0.79382 0.35881,-0.82645 0.30444,-2.02261 -0.0435,-0.95695 -0.10872,-1.32667 -0.29362,-1.70727 -0.13046,-0.27185 -0.30445,-0.52197 -0.39145,-0.54371 -0.10873,-0.0435 -0.0217,-0.3806 0.39145,-1.42453 0.29362,-0.75033 0.53289,-1.53328 0.53289,-1.72901 0,-0.59809 -0.47844,-1.39191 -1.46806,-2.46847 -0.52198,-0.56546 -1.12006,-1.28316 -1.32661,-1.58764 -0.51116,-0.77208 -1.2506,-1.16355 -2.22922,-1.20705 -0.40236,-0.0109 -0.86998,-0.087 -1.03307,-0.17399 -0.57635,-0.2936 -1.21797,-0.28273 -2.4794,0.0326 z m -6.19832,47.640219 c 0.0326,0.05437 0.14136,0.61984 0.23927,1.261418 0.13045,0.924316 0.17399,2.479337 0.20663,7.318394 0.0435,5.513262 0.0652,6.328827 0.28272,7.9382195 l 0.22836,1.794261 -0.33717,2.174853 c -0.30445,1.968248 -0.51108,3.827753 -0.59808,5.32840203 -0.0217,0.532834 -0.0326,0.511089 -0.54371,-1.054804 -1.01126,-3.11005103 -1.70724,-6.18746603 -1.92469,-8.56893203 -0.15227,-1.7072635 -0.43499,-6.6006935 -0.43499,-7.6772435 0,-0.728583 0.0326,-0.913443 0.20663,-1.065685 0.30445,-0.28273 0.66335,-1.17442 0.90253,-2.294468 0.17399,-0.793828 0.22835,-1.544149 0.2719,-3.892997 0.0435,-2.392339 0.087,-2.903428 0.20654,-2.903428 0.13054,0 0.14136,-0.260986 0.0979,-1.555021 l -0.0653,-1.544149 0.59808,2.316223 c 0.33717,1.283163 0.63071,2.370585 0.66335,2.424957 z m 6.47022,64.96296 c 0.0653,0.837318 0.10873,2.805558 0.087,4.360587 l -0.0326,2.849057 -0.7068,-0.18486 c -0.77207,-0.206613 -1.07661,-0.347983 -1.58769,-0.728575 l -0.34799,-0.250113 0.3589,-1.141802 c 0.85907,-2.696814 1.14179,-4.665062 1.22879,-8.438435 l 0.0544,-2.990435 0.41326,2.501091 c 0.22836,1.370161 0.46754,3.186158 0.53281,4.023485 z"
       inkscape:connector-curvature="0" />
    <path
       style="fill:#784421;fill-opacity:1;stroke:none;stroke-width:0.01056338"
       id="path5609"
       d="m -165.79977,-243.48766 c -0.14785,0.0211 -0.78168,0.17958 -1.42608,0.34859 -0.63374,0.16901 -1.47879,0.35915 -1.86963,0.42253 -0.59158,0.0951 -0.84513,0.20071 -1.63738,0.73944 -1.76402,1.20422 -3.20066,2.64085 -4.3415,4.36268 l -0.68663,1.04577 0.0634,1.43661 c 0.0739,1.7324 0.33804,2.90494 1.17253,5.1655 0.81336,2.19719 1.0986,3.33803 1.22533,4.94366 0.13729,1.63732 0.28523,2.30282 0.79224,3.64436 0.59159,1.56339 0.79233,2.38733 0.79233,3.32747 0,1.48944 -0.31691,2.27113 -1.07747,2.6514 -1.24654,0.63382 -1.77467,1.61621 -1.85916,3.47536 l -0.0423,1.17254 0.54934,1.08802 c 0.62327,1.25705 0.62327,1.28874 0.0422,2.5986 -0.77112,1.71126 -0.77112,1.74296 -0.65495,4.22534 l 0.1057,2.21831 -0.44365,1.37325 c -0.24299,0.75 -1.05635,3.41197 -1.80635,5.91549 -0.76065,2.49296 -1.56337,5.10211 -1.7958,5.7993 l -0.41196,1.24648 v 1.86972 c 0,3.90845 0.57038,6.91901 1.61617,8.51407 l 0.33804,0.52817 1.05635,0.26409 c 0.91898,0.2324 1.06692,0.29577 1.14084,0.52816 0.15842,0.48592 1.46832,5.12325 1.56337,5.51409 0.17962,0.76057 0.83457,5.54577 0.95066,6.95071 0.10569,1.28873 0.22186,1.7852 1.16205,5.18662 0.57037,2.05986 1.27813,4.56338 1.57392,5.54577 0.68664,2.29225 1.37319,5.92606 1.94365,10.28873 0.19018,1.39437 0.38028,2.30282 0.79224,3.70775 0.99299,3.4331 1.46832,6.07394 1.56337,8.80986 0.0846,2.76761 -0.28523,5.14437 -1.06692,6.67606 -0.49645,0.99296 -0.78168,1.21479 -1.76402,1.3838 -0.98243,0.16902 -1.40495,0.41197 -1.57393,0.91902 -0.16906,0.52817 -0.0739,0.8345 0.46477,1.36267 0.58094,0.59155 1.22533,0.81338 2.55636,0.87676 1.91196,0.10563 3.01056,-0.45423 4.35206,-2.19718 0.42252,-0.5493 0.97186,-1.22536 1.21476,-1.51057 0.41205,-0.47535 0.46486,-0.50704 0.68664,-0.39084 0.49654,0.26408 0.60215,0.59155 0.65495,2.15492 0.0528,1.44719 0.0528,1.46832 0.3486,1.72184 0.16897,0.13732 0.43308,0.25352 0.60215,0.25352 h 0.30626 l 0.0318,-1.56338 c 0.0211,-0.85564 0.0739,-1.54225 0.12673,-1.52113 0.0528,0.0211 0.14786,-0.0634 0.21122,-0.19014 0.0634,-0.1162 0.51766,-0.44366 1.01411,-0.72887 l 0.89794,-0.50704 0.17954,0.27464 c 0.10569,0.14789 0.2113,0.48592 0.25346,0.75 0.074,0.53873 0.29579,0.95071 0.5071,0.95071 0.20074,0 0.27467,-0.24296 0.27467,-0.89789 0,-1.24648 0.58094,-3.44366 1.27813,-4.8169 l 0.1901,-0.38028 -0.75,-2.3662 c -0.42252,-1.35211 -0.78168,-2.70422 -0.8344,-3.15846 -0.0529,-0.43309 -0.13738,-4.7852 -0.20074,-9.66548 -0.0739,-6.46479 -0.13738,-9.3169 -0.25347,-10.51056 -0.44373,-4.46831 -0.43317,-6.75 0.0422,-13.62677 0.19018,-2.84154 0.42261,-7.00352 0.42261,-7.8169 0,-0.34859 0.0422,-0.39084 0.70776,-0.73944 0.94009,-0.48591 2.29224,-1.82746 2.75701,-2.71478 l 0.3486,-0.6655 -0.0422,-1.55281 c -0.0317,-0.99296 -0.14794,-2.14437 -0.31691,-3.14789 -0.16898,-0.9507 -0.27467,-2.01761 -0.27467,-2.67253 -0.0106,-1.03522 0.0106,-1.13028 0.34859,-1.84859 0.70776,-1.45775 0.95066,-3.45423 1.0986,-8.69367 l 0.0739,-2.95774 0.28523,-0.33803 c 0.48589,-0.58098 0.54934,-0.94014 0.47533,-3.03169 -0.0422,-1.04578 -0.13738,-2.75704 -0.23243,-3.80282 -0.31683,-3.75 -0.47533,-6.25352 -0.47533,-7.44718 0,-1.65845 -0.16897,-3.45423 -0.43308,-4.57395 l -0.22178,-0.92958 0.4014,-0.49647 c 0.21122,-0.27465 0.52813,-0.64437 0.69711,-0.82395 l 0.30635,-0.32746 -0.68654,-0.13732 c -1.09869,-0.20071 -1.08813,-0.25353 0.19009,-1.5 0.61262,-0.60212 1.11972,-1.14085 1.11972,-1.20422 0,-0.0739 -0.35916,-0.1479 -0.91897,-0.19015 -0.91906,-0.0739 -1.54233,-0.29577 -1.82748,-0.64436 -0.11626,-0.14789 -0.12682,-0.2324 -0.0107,-0.50704 0.28524,-0.70775 0.27467,-0.73944 -0.4542,-1.4155 -0.36972,-0.35915 -1.01411,-0.90845 -1.41543,-1.22535 -1.19373,-0.96127 -1.67962,-2.11268 -2.18663,-5.19718 -0.5071,-3.09508 -0.78169,-3.79226 -2.26056,-5.59859 -0.49654,-0.61268 -1.14085,-1.43663 -1.42608,-1.82747 -1.37327,-1.88028 -2.54579,-3.06338 -3.83457,-3.89789 -0.50693,-0.3169 -0.61262,-0.34859 -1.32038,-0.33803 -0.42252,0.0106 -0.88729,0.0423 -1.03523,0.0634 z m 10.34158,37.42605 c 0.27468,0.64437 0.58094,1.95422 0.77113,3.27465 0.22186,1.5845 0.17953,8.41901 -0.0634,10.82746 -0.17962,1.75352 -0.28523,2.21831 -0.49645,2.14436 -0.0423,-0.0211 -0.49654,-0.62323 -1.01411,-1.3521 -0.52822,-0.72888 -1.34159,-1.86972 -1.81692,-2.53522 -1.37318,-1.89085 -1.80635,-2.93662 -1.80635,-4.28873 0,-0.49647 0.0528,-0.70774 0.22178,-0.92958 0.14794,-0.19014 0.25355,-0.5176 0.29579,-0.94014 0.0634,-0.5493 0.16907,-0.79225 0.63383,-1.5 1.11972,-1.7007 2.44019,-4.2676 2.44019,-4.75352 0,-0.13732 0.38019,-0.47536 0.53869,-0.47536 0.0422,0 0.16898,0.2324 0.29579,0.52818 z m -4.6585,63.61268 c 0.52822,1.21478 0.89794,2.38732 1.19374,3.80281 0.20065,0.89788 0.2429,1.44719 0.2429,3.14788 0.0106,2.04931 0.0106,2.07043 -0.27459,2.61973 -0.2113,0.4014 -0.31691,0.82393 -0.4014,1.62676 -0.20074,1.84858 -0.22187,1.98591 -0.31691,1.98591 -0.0422,0 -0.27467,-0.21127 -0.5071,-0.47535 -0.75,-0.85564 -1.11972,-2.52465 -1.2887,-5.7993 -0.1585,-3 -0.13729,-4.28873 0.0528,-4.28873 0.11617,0 0.15841,-0.1162 0.15841,-0.45423 0.0106,-0.97183 0.44373,-3.13731 0.63383,-3.13731 0.0422,0 0.27467,0.44366 0.50701,0.97183 z"
       inkscape:connector-curvature="0" />
    <g
       style="fill:#784421;fill-opacity:1;stroke:none"
       transform="matrix(0.00961793,0,0,-0.00961793,7.8966144,-122.82187)"
       id="g5054">
      <path
         inkscape:connector-curvature="0"
         d="m 4786,12547 c -22,-40 -52,-83 -66,-97 -39,-36 -93,-156 -98,-216 -2,-29 1,-68 7,-87 16,-47 79,-117 141,-157 27,-18 50,-34 50,-37 0,-5 -35,2 -67,14 -32,12 5,-25 54,-54 l 44,-26 -7,-91 c -10,-144 -17,-167 -108,-415 -47,-129 -86,-246 -86,-261 0,-36 14,-46 80,-57 54,-8 55,-9 51,-38 -1,-17 -19,-79 -38,-140 -67,-211 -78,-315 -44,-392 42,-92 105,-99 376,-47 27,5 23,1 -29,-40 -33,-26 -103,-72 -157,-102 l -97,-55 -178,-11 c -99,-6 -195,-10 -214,-8 -19,3 -87,4 -150,4 -114,0 -210,-19 -251,-48 -15,-10 -36,-3 -126,41 -59,29 -314,126 -565,215 l -457,163 -40,57 c -74,102 -161,146 -676,343 -294,112 -450,178 -667,285 -77,39 -152,70 -166,70 -17,0 -37,14 -66,47 -151,174 -254,259 -396,327 -95,46 -157,53 -238,28 -143,-45 -324,-189 -381,-303 -45,-90 -56,-154 -42,-238 16,-98 27,-120 68,-126 18,-3 48,-7 66,-10 l 33,-5 -10,-82 -9,-81 39,-34 c 53,-45 130,-82 191,-92 55,-8 112,-3 274,28 58,11 162,22 230,25 l 124,6 99,-108 c 73,-79 142,-172 262,-354 215,-326 312,-427 485,-507 82,-39 230,-81 281,-81 36,0 71,-25 456,-322 229,-178 453,-347 496,-376 212,-142 451,-230 645,-236 l 86,-3 46,-129 c 121,-337 317,-732 619,-1244 114,-193 180,-331 180,-375 0,-6 -65,-20 -162,-34 -272,-38 -772,-144 -963,-202 -197,-61 -304,-141 -368,-276 -29,-64 -31,-75 -34,-203 -4,-162 7,-203 102,-398 110,-225 240,-421 466,-702 119,-147 187,-226 454,-525 239,-267 370,-438 472,-616 53,-94 183,-379 183,-401 0,-7 -25,-28 -54,-45 -83,-50 -200,-166 -261,-258 -118,-177 -231,-452 -274,-666 -63,-310 -40,-480 73,-557 108,-72 141,-43 240,213 94,239 202,410 361,571 99,101 206,171 333,220 210,80 238,97 276,177 67,137 24,395 -82,496 -26,25 -47,60 -66,111 -16,41 -62,150 -102,242 -109,249 -105,227 -114,643 -4,198 -11,376 -15,395 -3,19 13,-12 38,-70 63,-152 131,-279 222,-415 54,-80 90,-147 109,-200 246,-700 733,-1979 760,-1997 6,-4 79,-30 161,-57 226,-74 454,-121 671,-137 l 91,-7 70,-106 c 108,-161 162,-262 258,-478 104,-235 157,-343 197,-400 27,-40 29,-50 32,-160 6,-190 50,-333 154,-504 95,-155 167,-246 311,-389 216,-215 392,-321 511,-307 57,7 125,39 140,66 29,55 10,94 -124,264 -124,156 -190,263 -250,405 -102,242 -123,401 -86,642 13,87 20,162 16,189 -8,58 -46,121 -95,160 -43,34 -179,101 -205,101 -17,0 -139,234 -190,363 -26,66 -59,205 -51,217 2,4 30,12 62,20 32,7 121,33 198,57 861,276 1799,926 3130,2171 249,233 1215,1194 1215,1208 0,6 -57,16 -127,23 -359,35 -849,109 -1193,181 -1313,274 -2315,749 -3013,1430 -137,133 -317,329 -317,344 0,4 9,2 19,-4 61,-32 323,-132 393,-149 260,-64 618,-11 751,113 83,77 60,228 -79,511 -75,152 -145,249 -208,288 -36,22 -65,57 -131,157 -213,322 -425,541 -710,732 -259,173 -640,328 -806,328 -29,0 -48,4 -44,10 7,11 306,110 422,139 45,12 135,30 200,41 65,11 156,29 202,40 47,11 130,25 185,31 118,13 136,20 136,56 0,64 -170,175 -365,238 -162,52 -264,49 -454,-15 -211,-70 -521,-200 -725,-302 -65,-33 -83,-38 -102,-30 -12,6 -54,8 -97,5 l -74,-6 -100,94 c -55,52 -161,150 -236,219 l -137,125 v 97 c 0,114 15,229 40,309 22,71 111,199 120,173 6,-15 14,-11 52,24 81,75 139,215 169,404 18,117 7,374 -20,466 -51,175 -135,286 -294,389 -199,129 -313,172 -477,180 -134,7 -216,-6 -391,-62 -238,-77 -342,-83 -401,-25 -30,30 -34,53 -18,96 19,49 5,34 -34,-39 z m 454,-6967 c 0,-5 -2,-10 -4,-10 -3,0 -8,5 -11,10 -3,6 -1,10 4,10 6,0 11,-4 11,-10 z"
         id="path5052"
         style="fill:#784421;fill-opacity:1" />
    </g>
    <g
       style="fill:#784421;fill-opacity:1;stroke:none"
       transform="matrix(0.03880556,0,0,-0.03880556,84.555782,49.83501)"
       id="g4499">
      <path
         inkscape:connector-curvature="0"
         d="m 2755.2276,2416.5784 c -2.8809,-30.5824 -7.5348,-42.3278 -22.3827,-55.1812 -10.1942,-9.0861 -67.5915,-38.5604 -70.9157,-36.3443 -1.7729,0.8865 -35.4578,8.4212 -49.1977,10.859 -7.978,1.3296 -8.1996,1.7729 -6.4267,8.6428 3.5458,14.4047 13.5183,32.1337 29.4743,50.9706 4.8754,5.7619 8.4212,11.0806 7.7564,11.5238 -1.5513,1.5513 -26.815,-3.1026 -37.4523,-6.6483 -5.3187,-1.9945 -14.4048,-6.4268 -20.1667,-10.1942 -11.3021,-7.3131 -31.912,-28.3662 -35.6794,-36.7874 -1.3296,-2.881 -3.3242,-5.0971 -4.6538,-5.0971 -1.3297,0 -18.3938,3.989 -37.8956,8.8645 -60.9431,15.5127 -90.8606,20.1666 -134.2964,21.4963 -48.0897,1.5512 -66.705,-1.5513 -96.8442,-16.1777 -16.1776,-7.7564 -25.2637,-10.6373 -43.2142,-13.2967 -28.3663,-4.4322 -62.0512,-3.1025 -88.8662,3.3242 -10.8589,2.6594 -19.945,4.4322 -20.3882,3.989 -1.3297,-1.3296 28.3663,-21.0531 36.7875,-24.5988 19.7234,-8.1997 42.5494,-10.6374 114.1298,-12.4103 52.5219,-1.3296 74.6831,-2.8809 85.0988,-5.3186 15.5128,-3.9891 26.1501,-9.0861 14.6263,-7.0916 -26.8149,4.6538 -40.9981,5.7619 -81.9962,5.5403 -25.4853,0 -64.0456,-0.8865 -85.3203,-1.7729 -23.2692,-1.1081 -51.1923,-0.8865 -69.8076,0.4432 -47.4248,3.3242 -46.5384,3.3242 -46.5384,-1.7729 0,-3.1025 2.2161,-4.6538 8.6429,-5.9835 4.6538,-1.108 15.0695,-4.8754 22.8259,-8.6428 7.978,-3.7674 17.0641,-7.7564 20.1667,-8.6429 3.3241,-0.8864 31.4688,-9.3077 62.4944,-18.3937 31.0255,-9.3077 58.727,-17.5073 61.3863,-18.6154 2.8809,-1.108 -10.1941,-1.7729 -32.1336,-1.9945 -39.4469,0 -58.5054,-2.4377 -127.6482,-15.5128 -61.3863,-11.7454 -89.3094,-14.8479 -119.8917,-13.5183 -51.8571,2.4378 -78.2288,15.7344 -106.5951,53.1868 -5.3186,7.0915 -9.7509,12.1886 -9.7509,11.0805 0,-0.8864 1.9945,-10.6373 4.4323,-21.2747 9.3076,-42.1061 28.1446,-66.705 64.7105,-84.2123 55.6244,-26.8149 70.0291,-30.8039 130.3074,-36.1226 22.6044,-1.9945 47.4249,-4.8755 55.4029,-6.2051 13.5183,-2.6594 11.3021,-2.881 -31.0256,-2.881 -49.8626,0.2216 -63.8241,-1.5513 -117.2324,-14.8479 -44.5439,-11.0806 -60.2783,-13.2967 -92.1903,-13.2967 -43.4359,0 -68.0347,8.1996 -122.5511,40.3332 -29.0311,17.2857 -59.1702,32.7985 -79.7801,40.9981 -13.2967,5.5403 -29.4743,8.6429 -60.2783,11.5238 l -14.4047,1.5513 17.7289,-13.0751 c 9.7509,-7.0915 30.1391,-21.4963 45.4303,-31.6904 36.3443,-24.5988 52.7435,-38.1171 87.0933,-70.2508 30.8039,-29.2527 53.6299,-46.0951 78.8936,-58.5054 l 16.6209,-8.1996 -11.0806,-1.9945 c -5.9835,-0.8864 -26.3718,-1.7729 -45.2087,-1.5513 -28.8095,0 -41.663,1.3297 -80.8882,8.1996 -91.0822,15.5128 -111.6921,15.7345 -214.5197,2.6594 -84.434,-10.859 -119.0053,-12.8535 -157.5657,-9.9725 -17.0641,1.3296 -32.1337,3.1025 -33.4633,3.5458 -4.8755,2.4377 16.3992,-15.7345 32.5768,-28.1447 42.771,-31.912 97.0658,-58.9486 138.5071,-68.6995 9.9725,-2.4377 31.2472,-5.3187 46.76,-6.4267 45.652,-3.3242 62.716,-11.3022 83.7691,-39.4469 6.87,-9.3076 15.2912,-19.945 18.3938,-23.4908 l 5.7619,-6.4267 -24.3773,1.3297 c -26.1501,1.5513 -45.2087,5.5403 -84.4339,17.9505 -31.2472,9.7509 -52.3003,13.7399 -89.7526,17.0641 -33.2417,2.8809 -78.672,1.3296 -111.9137,-3.5458 -11.9671,-1.7729 -25.2637,-3.3242 -29.696,-3.3242 -14.8479,0 -47.2032,-6.6483 -70.694,-14.6263 -31.2472,-10.4158 -64.7105,-24.5989 -124.1023,-52.7435 -27.2582,-13.0751 -49.8626,-23.2692 -49.8626,-23.0476 -0.2216,0.4432 -3.989,8.1996 -8.6428,17.2857 -13.9615,29.0311 -30.1392,43.6574 -54.73803,50.0841 -15.51279,3.989 -33.68492,1.9945 -56.06767,-5.5402 -40.55487,-13.9616 -105.93022,-60.7215 -163.32756,-116.5676 -20.16663,-19.5018 -42.10615,-39.89 -48.75449,-45.2087 -23.49081,-18.6154 -55.62445,-31.2472 -80.22331,-31.2472 -46.98161,-0.2216 -92.63354,34.3497 -113.68662,85.9852 -10.19412,25.0421 -12.63185,38.1171 -14.18313,72.9101 l -1.32967,33.9065 -24.82047,-33.9065 c -49.41933,-66.705 -60.05667,-101.9412 -39.44682,-128.9778 4.21062,-5.5403 6.86996,-9.9725 5.98351,-9.9725 -4.65384,0 -44.54388,38.3388 -69.14274,66.2618 -15.29118,17.5073 -27.92303,32.5769 -28.36625,33.6849 -1.77289,4.4322 -4.87545,1.5513 -4.87545,-4.6538 0,-3.5458 -2.43773,-23.0476 -5.54028,-43.2142 -7.53479,-48.7545 -8.86446,-71.8021 -5.7619,-91.9687 3.10256,-20.1667 10.19412,-36.3443 21.27469,-48.5329 l 8.19962,-9.0861 -7.31317,1.3297 c -53.85156,9.3077 -96.62255,39.0036 -176.18102,122.3294 -35.67943,37.2307 -37.23071,39.2252 -48.7545,63.1593 -6.42673,13.7399 -11.7454,23.2692 -11.96701,21.4963 0,-1.9945 1.55128,-15.2912 3.54578,-29.6959 12.18862,-94.1849 66.4834,-214.0766 122.9943,-272.582 9.75089,-9.7509 17.50729,-18.1721 17.50729,-18.3937 0,-0.2217 -7.31317,1.5512 -15.95601,3.989 -60.27829,16.3992 -164.435623,91.3038 -212.525284,153.1334 -7.756397,9.7509 -15.956017,19.945 -18.172131,22.6044 -3.767392,4.4322 -3.767392,1.9945 -3.102558,-61.8296 0.664834,-64.9321 0.886445,-66.9266 6.869951,-86.4284 24.59886,-81.1098 86.650032,-139.3936 215.627842,-202.3312 l 39.44682,-19.2802 -18.83697,-1.7729 c -10.41573,-1.108 -41.21971,-2.2161 -68.69952,-2.2161 -65.15373,-0.2216 -81.55297,2.881 -126.318462,24.5989 -11.080567,5.5403 -37.89554,33.0201 -43.879046,45.4303 -5.097061,10.1941 -7.756397,11.967 -13.2966806,8.6428 -5.9835063,-3.989 26.3717496,-72.4669 54.0731686,-113.6866 59.61345,-89.3093 143.82576,-160.8898 230.25419,-195.4612 45.43032,-18.1721 83.9907,-25.9285 129.42102,-26.1501 23.93403,0 31.69042,0.8864 53.85156,6.6483 82.88264,21.4963 155.57116,66.705 231.14063,144.4906 42.77099,43.8791 74.90464,87.0933 100.83316,134.9613 l 11.30218,21.0531 -1.32967,-13.0751 c -0.88644,-7.3131 -3.54578,-20.6098 -5.9835,-29.9175 -2.65934,-9.3077 -4.65384,-18.837 -4.65384,-21.2747 0.44322,-24.5988 -4.43223,-76.6775 -9.08607,-95.0713 -13.07507,-50.7489 -61.16473,-125.6536 -116.34595,-181.05642 -15.29118,-15.29118 -43.43583,-39.89004 -62.4944,-54.738 -54.95961,-42.77099 -56.95412,-44.76549 -69.14274,-73.35336 -5.7619,-13.51829 -10.41573,-25.4853 -10.41573,-26.37175 0,-1.10805 -3.54579,-5.09706 -7.7564,-9.30767 -15.5128,-15.06958 -19.28019,-39.0036 -16.17763,-105.26539 2.21611,-45.87355 2.21611,-46.98161 -3.32417,-71.35886 -3.10256,-13.51829 -8.86445,-31.91203 -12.63185,-40.99809 -9.30767,-21.05308 -29.91753,-58.28379 -37.89554,-68.69952 -3.54578,-4.43223 -12.41023,-18.83697 -19.50179,-32.13365 -17.28569,-31.91203 -53.18673,-92.85515 -60.27829,-102.60605 -13.29668,-17.5073 -24.15564,-46.31677 -24.15564,-63.38084 0,-6.86996 1.55128,-11.30218 5.31868,-15.73441 4.43222,-5.09706 6.86995,-5.98351 15.51279,-5.54028 5.54028,0.22161 10.19412,-0.22161 10.19412,-0.88645 0,-3.54578 -7.53478,-18.17213 -13.51829,-25.4853 -5.09706,-6.64834 -12.85346,-11.52379 -29.91753,-19.72341 -20.38825,-9.97251 -23.4908,-10.85896 -29.03109,-8.42123 -3.32417,1.32966 -15.29118,2.43772 -26.15014,2.65933 -18.39374,0.22161 -21.27469,-0.44322 -34.79298,-7.09156 -39.00359,-19.05858 -64.04568,-67.36985 -64.26729,-123.43752 -0.22161,-41.219709 11.30218,-66.705014 35.90104,-79.336861 9.7509,-5.09706 13.96151,-5.983506 21.05308,-4.875449 18.17213,2.659336 44.10066,17.950519 73.35335,43.214212 11.08057,9.307677 14.40474,11.080567 21.05308,10.637345 6.64834,-0.221612 10.19412,1.329668 19.5018,9.086063 15.95602,13.29668 28.14464,31.2472 46.9816,69.58596 10.63735,21.05308 17.95052,33.02009 20.60986,33.90654 2.43772,0.88645 19.05857,15.95602 37.00909,33.90654 23.04758,22.60435 33.24171,34.34975 34.34976,39.00359 0.66484,3.7674 4.21062,12.63185 7.7564,19.94502 3.54578,7.53479 8.19962,20.83147 10.63734,29.91753 2.21612,9.08607 6.86996,21.27469 9.97251,27.03659 10.41574,18.17213 19.05858,48.08966 31.2472,109.69761 6.64834,33.24171 13.5183,65.37535 15.29119,71.80208 3.989,13.07507 39.89004,83.9907 72.46691,142.49609 21.05307,37.89554 23.04758,40.77649 32.79848,45.87355 16.84246,8.86446 39.66843,33.68493 64.04567,69.80758 27.92303,41.44132 44.10066,58.06217 71.58047,73.57496 29.2527,16.39924 44.10066,28.14464 88.42292,69.36435 66.2618,61.82953 75.79108,68.69953 134.07483,95.51453 46.76,21.7179 58.2838,28.1446 87.5365,49.1977 12.8535,9.3077 30.804,20.6098 39.6685,25.2637 15.2911,7.5348 17.9505,8.1996 34.3497,7.978 12.4102,-0.2216 26.1501,-2.6594 44.5439,-7.5348 14.6263,-3.7674 27.0366,-7.3132 27.4798,-7.978 2.8809,-2.881 -40.9981,-49.4193 -54.9596,-58.5054 -13.7399,-8.6428 -31.2472,-12.4102 -42.771,-9.0861 -11.0806,3.3242 -36.1227,3.5458 -52.3003,0.2216 -15.0696,-3.3241 -39.2252,-15.0695 -50.0841,-24.3772 -9.5293,-8.4212 -25.4854,-45.20872 -31.9121,-74.23981 -2.6593,-10.85895 -9.7509,-56.28928 -15.956,-100.83316 -6.2051,-44.54388 -12.1886,-84.43392 -13.2967,-88.64454 -1.108,-4.21061 -5.097,-25.04208 -8.8644,-45.87355 -3.7674,-21.27468 -9.97254,-47.86805 -14.18316,-59.83506 -12.63185,-36.78748 -38.56037,-104.60055 -43.21421,-113.2434 -6.20512,-11.7454 -19.28019,-44.10065 -29.47431,-73.35335 -19.05858,-54.29478 -11.52379,-87.31487 21.05308,-92.63354 8.19962,-1.32967 8.19962,-1.32967 4.43222,-5.7619 -6.20511,-6.86995 -47.64644,-37.45232 -54.29478,-40.11165 -4.43222,-1.55128 -9.52928,-1.55128 -18.83696,0.66483 -19.05858,4.43223 -44.32227,5.54029 -54.51639,2.43773 -17.72891,-5.31867 -36.56587,-28.36625 -45.20871,-55.18123 -4.43223,-14.40473 -6.20512,-53.40833 -3.10256,-73.13174 5.31867,-33.90654 20.38824,-66.92663 35.45781,-77.56397 16.17763,-11.52379 31.91203,-7.09156 62.27279,17.72891 9.52929,7.978 27.03658,18.83696 42.32777,26.37175 14.18312,7.09156 28.36625,15.7344 31.46881,19.28018 17.28568,18.61536 40.33326,47.42483 45.43032,56.06767 3.10256,5.54029 13.29668,17.95052 22.60438,27.70142 9.3077,9.7509 24.5988,26.15014 33.6849,36.56587 14.848,17.06408 17.0641,20.83147 22.6044,38.56038 14.4047,46.31677 22.1611,98.83866 27.0365,185.26708 3.1026,56.95412 36.1227,156.01439 72.2453,217.17912 20.1667,34.12815 55.1813,78.00719 85.3204,106.81667 18.3938,17.28568 25.0421,18.83696 89.3094,21.71791 54.5164,2.21611 92.6335,6.20512 129.6426,13.51829 70.9157,14.18313 92.412,28.58786 132.9668,89.7526 24.8205,37.67389 39.0036,52.74349 52.7435,56.51089 9.9725,2.6593 12.6319,2.4377 48.9761,-4.4322 25.9286,-4.8755 59.8351,-5.9835 78.0072,-2.6594 5.9835,1.1081 19.7234,2.4378 30.5824,2.6594 l 19.7234,0.6648 3.7674,-10.859 c 2.2161,-6.2051 7.978,-19.50175 13.2967,-29.91748 12.4102,-24.82047 27.4798,-39.44682 70.0292,-68.03468 41.8845,-28.36626 56.0676,-41.21971 71.3588,-64.93213 15.956,-24.82047 26.1502,-35.2362 65.8186,-66.4834 18.3937,-14.18313 38.1171,-31.2472 44.1006,-37.45232 11.9671,-13.07507 11.5238,-8.42123 4.8755,-45.65194 -4.6538,-25.70691 -7.5348,-73.13174 -9.0861,-146.26348 -0.6648,-35.23621 -2.2161,-72.46691 -3.5458,-82.43942 -3.5457,-29.91754 -27.4798,-121.88624 -44.3222,-169.75429 -29.6959,-85.32037 -35.0146,-117.45402 -22.3828,-141.16643 8.1996,-15.95602 16.3993,-19.94502 43.6575,-21.4963 24.3772,-1.55128 28.5878,-3.76739 37.8955,-19.72341 7.978,-13.51829 6.6483,-24.155637 -5.9835,-46.538383 -12.8535,-23.04758 -16.6209,-32.798479 -18.3937,-47.868051 l -1.5513,-12.631846 84.8771,0.443222 c 78.8937,0.221612 86.4284,0 107.0383,-4.4322265 12.1886,-2.4377248 22.6044,-4.4322269 22.826,-3.9890042 0.4432,0.4432227 -6.4268,11.9670127 -15.2912,25.9285277 -25.4853,39.890042 -30.3608,48.311273 -34.5714,59.170229 -5.3187,14.404742 -12.4102,23.047582 -50.3058,62.272792 -38.3387,39.44681 -44.7654,49.64094 -48.3112,76.89913 -1.1081,9.52929 -1.7729,28.36625 -1.1081,41.66293 0.8865,21.27469 2.4377,29.03109 12.4102,61.60796 20.3883,67.36985 35.6795,135.40453 35.6795,160.00339 0,6.20512 5.097,23.93402 14.6263,50.30577 7.978,22.16114 16.8425,48.31128 19.5018,57.84057 l 5.0971,17.28568 38.5604,-48.08966 c 21.2746,-26.37175 42.1061,-52.7435 46.5383,-58.72701 8.4213,-11.30218 21.2747,-43.21421 27.7015,-69.14274 1.9945,-8.19962 6.6483,-19.05857 10.1941,-23.93402 9.5293,-13.07507 17.7289,-15.95602 42.9926,-13.96152 l 20.6098,1.55128 2.4378,-5.9835 c 3.989,-10.41574 2.4377,-19.28019 -6.4268,-38.78199 -4.8754,-10.41573 -9.086,-21.05308 -9.3076,-23.4908 -1.1081,-7.53479 2.6593,-30.58237 5.9835,-36.78748 7.978,-15.5128 29.2527,-26.81498 62.9376,-33.46332 14.1831,-2.65933 133.8532,-3.76739 136.5126,-1.32967 0.6648,0.66484 -5.7619,15.5128 -14.1832,33.02009 -21.4963,45.43033 -35.2362,66.04019 -49.4193,74.90464 -3.3242,1.9945 -11.967,12.63185 -19.2802,23.4908 -19.945,29.69592 -46.76,62.05118 -85.9852,103.93572 -63.1592,67.59146 -74.2398,79.78009 -93.0767,103.27089 -21.0531,25.92853 -39.6685,52.96511 -48.7545,70.47241 -3.989,7.75639 -7.3132,11.52379 -10.1942,11.52379 -3.989,0 -23.2691,27.03658 -38.5603,54.51639 l -6.2051,11.30218 4.8754,29.69592 c 9.7509,60.05667 17.7289,85.9852 45.6519,148.92282 6.6484,14.84796 18.6154,44.10066 26.815,64.71051 7.978,20.83146 17.7289,43.21426 21.2747,49.86256 3.7674,6.6483 7.3132,15.5128 7.7564,19.7234 1.3297,10.6373 13.5183,35.6794 29.0311,60.0567 19.2802,30.3607 25.9285,44.5439 33.9065,72.6885 7.3132,26.1501 9.0861,46.9816 4.6539,55.6244 -2.2162,3.9891 -1.3297,7.7564 5.3186,22.826 11.5238,26.815 13.0751,39.6684 11.3022,95.5145 -1.5513,49.8626 -6.8699,89.531 -17.2857,128.9778 -6.2051,23.7124 -19.5018,51.6355 -28.8095,60.4999 l -7.5347,7.0916 10.1941,10.6373 c 29.2527,30.5824 49.6409,97.2874 64.2673,212.0821 3.7674,29.2527 7.5348,53.8515 8.6428,54.9596 2.4377,2.4377 38.782,-11.3022 54.738,-20.8315 12.8535,-7.5348 32.7985,-26.3717 76.4559,-71.8021 25.9286,-27.0365 29.2527,-33.4633 31.9121,-61.8295 1.3296,-16.6209 4.4322,-24.1557 12.8534,-31.9121 7.3132,-6.8699 35.4578,-18.1721 45.652,-18.1721 4.4322,0 17.064,-1.5513 27.923,-3.3242 30.5824,-5.097 50.749,-4.4322 64.7105,1.9945 10.859,5.0971 12.1886,6.6484 21.2747,25.0421 5.5403,10.6374 11.0806,23.7124 12.6318,29.0311 1.9945,6.4267 4.2107,9.3077 6.87,9.3077 2.2161,0 5.0971,1.9945 6.4267,4.2106 1.7729,3.5458 1.3297,4.6538 -2.2161,5.7619 -5.3187,1.7729 -5.3187,1.3297 5.5403,31.0256 3.989,11.0806 8.1996,22.6043 8.8644,26.1501 0.8865,3.3242 2.4378,5.9835 3.5458,5.9835 2.881,0 2.4377,12.6319 -0.4432,18.3938 -1.3297,2.6593 -11.3022,13.2967 -21.9395,23.7124 -21.4963,20.8315 -19.0586,15.5128 -26.5934,59.8351 -1.3297,7.978 -9.3077,32.7984 -17.7289,55.4028 -14.6263,40.1116 -14.8479,41.2197 -11.3022,47.2032 3.3242,5.9835 3.3242,6.4267 -0.6648,9.5293 -3.1026,2.2161 -4.8755,2.4377 -5.9835,0.6648 -2.2161,-3.7674 -3.5458,-0.2216 -8.8645,21.4963 -5.7619,23.9341 -5.7619,26.815 0.2216,45.652 3.5458,11.7454 5.3187,14.4047 8.4213,13.5183 5.3187,-1.3297 13.7399,2.2161 22.1611,9.3076 6.87,5.7619 7.0916,6.2051 3.5458,10.1942 -3.5458,3.989 -3.989,3.989 -11.3022,-2.4378 -10.6373,-9.3076 -18.8369,-8.8644 -10.1941,0.4433 2.8809,3.3241 3.7674,7.5347 3.3242,17.7289 -0.4433,12.6318 -1.3297,14.4047 -9.9725,23.934 -14.1832,15.2912 -23.7125,26.3717 -23.7125,27.0366 0,0.4432 6.2052,0.6648 13.9616,0.8864 23.4908,0.2216 39.2252,8.4212 50.5273,26.815 15.0696,24.3772 5.7619,64.0457 -20.3882,87.9797 l -12.8535,11.5238 6.4268,12.6318 c 11.967,23.7124 11.3021,46.3168 -2.881,111.2489 l -7.3132,33.2417 z m -423.056,-49.8626 c -1.5513,-0.4432 -4.6539,-0.4432 -6.6484,0 -2.2161,0.6649 -0.8864,1.1081 2.6594,1.1081 3.7673,0 5.3186,-0.4432 3.989,-1.1081 z m -12.4103,-1.9945 c -0.6648,-0.6648 -2.6593,-0.8864 -4.2106,-0.2216 -1.7729,0.6649 -1.1081,1.3297 1.3297,1.3297 2.4377,0.2216 3.7674,-0.4432 2.8809,-1.1081 z M 46.472146,1475.1734 c 5.540284,-13.7399 15.512794,-31.6904 25.263693,-46.3168 3.767393,-5.3186 5.540284,-9.086 3.989004,-8.1996 -9.307676,5.7619 -32.798479,50.0842 -40.111653,75.5695 -6.205118,21.4963 -5.318672,28.1446 0.886445,7.7564 2.880948,-9.0861 7.313175,-22.1612 9.972511,-28.8095 z M 2083.9668,1067.6301 c 4.6539,-1.7729 6.87,-5.5402 11.7455,-20.6098 5.3186,-15.7344 6.2051,-22.3828 6.4267,-47.20323 0.4432,-28.58786 0.4432,-28.80948 9.7509,-49.64094 5.097,-11.30218 8.8644,-21.05308 8.4212,-21.4963 -1.108,-1.10806 -29.0311,32.35525 -42.1061,50.52738 -18.837,26.37179 -22.6044,36.56589 -22.6044,62.71599 0,29.0311 0.6648,30.804 12.8535,29.2527 5.3186,-0.6648 12.1886,-2.4377 15.5127,-3.5458 z m 87.9798,-636.46774 c -5.9836,-27.03659 -24.5989,-95.51449 -26.815,-98.17383 -2.6594,-3.10256 10.4157,55.62445 19.2802,85.09876 4.4322,15.29118 8.6428,29.47431 9.086,31.69042 0.6649,2.21611 1.5513,3.54578 2.2161,3.10256 0.4433,-0.44322 -1.3296,-10.41573 -3.7673,-21.71791 z"
         id="path4497"
         style="fill:#784421;fill-opacity:1;stroke-width:0.22161135" />
    </g>
  </g>
</svg>
